<?xml version="1.0" encoding="UTF-8" standalone="no"?>
<!DOCTYPE svg PUBLIC "-//W3C//DTD SVG 1.1//EN" "http://www.w3.org/Graphics/SVG/1.1/DTD/svg11.dtd">
<svg width="100%" height="100%" viewBox="0 0 3018 1171" version="1.1" xmlns="http://www.w3.org/2000/svg" xmlns:xlink="http://www.w3.org/1999/xlink" xml:space="preserve" xmlns:serif="http://www.serif.com/" style="fill-rule:evenodd;clip-rule:evenodd;stroke-linejoin:round;stroke-miterlimit:2;">
    <g transform="matrix(1,0,0,1,-14244.1,2382.46)">
        <g transform="matrix(1.49699,0,0,1.49699,14709.4,-1006.83)">
            <g transform="matrix(213.253,0,0,213.253,1705.19,-442.983)">
            </g>
            <text x="886.301px" y="-442.983px" style="font-family:'MicrogrammaD-BoldExte', 'Microgramma D';font-weight:700;font-size:213.253px;">W<tspan x="1169.5px 1385.74px 1548.66px " y="-442.983px -442.983px -442.983px ">ALL</tspan></text>
        </g>
        <g transform="matrix(1,0,0,1,14716.8,-1797.04)">
            <g transform="matrix(1,0,0,1,-1458.33,-585.417)">
                <g transform="matrix(4.16667,0,0,4.16667,0,0)">
                    <circle cx="350" cy="140.5" r="4.613"/>
                    <circle cx="340.808" cy="149.692" r="4.493"/>
                    <circle cx="350" cy="149.692" r="4.793"/>
                    <circle cx="359.192" cy="149.692" r="2.038"/>
                    <circle cx="359.192" cy="140.5" r="1.64"/>
                    <circle cx="359.192" cy="131.308" r="1.587"/>
                    <circle cx="350" cy="131.308" r="4.463"/>
                    <circle cx="340.808" cy="131.308" r="4.285"/>
                    <circle cx="340.808" cy="140.5" r="4.463"/>
                    <circle cx="331.615" cy="158.885" r="2.922"/>
                    <circle cx="340.808" cy="158.885" r="4.583"/>
                    <circle cx="350" cy="158.885" r="5.462"/>
                    <circle cx="359.192" cy="158.885" r="3.697"/>
                    <circle cx="368.385" cy="158.885" r="2.614"/>
                    <circle cx="368.385" cy="149.692" r="0.553"/>
                    <circle cx="368.385" cy="140.5" r="0.131"/>
                    <circle cx="368.385" cy="131.308" r="0.131"/>
                    <circle cx="368.385" cy="122.115" r="0.094"/>
                    <circle cx="359.192" cy="122.115" r="1.128"/>
                    <circle cx="350" cy="122.115" r="3.149"/>
                    <circle cx="340.808" cy="122.115" r="3.035"/>
                    <circle cx="331.615" cy="122.115" r="1.587"/>
                    <circle cx="331.615" cy="131.308" r="2.365"/>
                    <circle cx="331.615" cy="140.5" r="2.475"/>
                    <circle cx="331.615" cy="149.692" r="2.642"/>
                    <circle cx="322.423" cy="168.077" r="3.121"/>
                    <circle cx="331.615" cy="168.077" r="2.146"/>
                    <circle cx="340.808" cy="168.077" r="3.523"/>
                    <circle cx="350" cy="168.077" r="4.854"/>
                    <circle cx="359.192" cy="168.077" r="4.523"/>
                    <circle cx="368.385" cy="168.077" r="4.255"/>
                    <circle cx="377.577" cy="168.077" r="4.226"/>
                    <circle cx="377.577" cy="158.885" r="2.475"/>
                    <circle cx="377.577" cy="149.692" r="0.398"/>
                    <circle cx="368.385" cy="112.923" r="0.027"/>
                    <circle cx="359.192" cy="112.923" r="0.312"/>
                    <circle cx="350" cy="112.923" r="0.906"/>
                    <circle cx="340.808" cy="112.923" r="0.858"/>
                    <circle cx="331.615" cy="112.923" r="0.398"/>
                    <circle cx="322.423" cy="112.923" r="0.531"/>
                    <circle cx="322.423" cy="122.115" r="2.255"/>
                    <circle cx="322.423" cy="131.308" r="3.465"/>
                    <circle cx="322.423" cy="140.5" r="3.552"/>
                    <circle cx="322.423" cy="149.692" r="3.784"/>
                    <circle cx="322.423" cy="158.885" r="4.196"/>
                    <circle cx="313.23" cy="177.27" r="1.851"/>
                    <circle cx="322.423" cy="177.27" r="1.103"/>
                    <circle cx="331.615" cy="177.27" r="0.786"/>
                    <circle cx="340.808" cy="177.27" r="1.432"/>
                    <circle cx="350" cy="177.27" r="2.092"/>
                    <circle cx="359.192" cy="177.27" r="2.174"/>
                    <circle cx="368.385" cy="177.27" r="2.174"/>
                    <circle cx="377.577" cy="177.27" r="2.174"/>
                    <circle cx="386.77" cy="177.27" r="1.851"/>
                    <circle cx="386.77" cy="168.077" r="3.639"/>
                    <circle cx="386.77" cy="158.885" r="2.146"/>
                    <circle cx="386.77" cy="149.692" r="0.333"/>
                    <circle cx="359.192" cy="103.73" r="0.027"/>
                    <circle cx="350" cy="103.73" r="0.042"/>
                    <circle cx="340.808" cy="103.73" r="0.042"/>
                    <circle cx="331.615" cy="103.73" r="0.027"/>
                    <circle cx="322.423" cy="103.73" r="0.012"/>
                    <circle cx="313.23" cy="103.73" r="0.042"/>
                    <circle cx="313.23" cy="112.923" r="1.053"/>
                    <circle cx="313.23" cy="122.115" r="3.843"/>
                    <circle cx="313.23" cy="131.308" r="5.37"/>
                    <circle cx="313.23" cy="140.5" r="5.462"/>
                    <circle cx="313.23" cy="149.692" r="5.37"/>
                    <circle cx="313.23" cy="158.885" r="5.492"/>
                    <circle cx="313.23" cy="168.077" r="4.493"/>
                    <circle cx="304.038" cy="186.462" r="0.27"/>
                    <circle cx="313.23" cy="186.462" r="0.209"/>
                    <circle cx="322.423" cy="186.462" r="0.112"/>
                    <circle cx="331.615" cy="186.462" r="0.076"/>
                    <circle cx="340.808" cy="186.462" r="0.189"/>
                    <circle cx="350" cy="186.462" r="0.27"/>
                    <circle cx="359.192" cy="186.462" r="0.291"/>
                    <circle cx="368.385" cy="186.462" r="0.291"/>
                    <circle cx="377.577" cy="186.462" r="0.291"/>
                    <circle cx="386.77" cy="186.462" r="0.249"/>
                    <circle cx="395.962" cy="186.462" r="0.189"/>
                    <circle cx="395.962" cy="177.27" r="1.279"/>
                    <circle cx="395.962" cy="168.077" r="2.392"/>
                    <circle cx="395.962" cy="158.885" r="1.355"/>
                    <circle cx="395.962" cy="149.692" r="0.209"/>
                    <circle cx="304.038" cy="103.73" r="0.059"/>
                    <circle cx="304.038" cy="112.923" r="1.304"/>
                    <circle cx="304.038" cy="122.115" r="4.137"/>
                    <circle cx="304.038" cy="131.308" r="4.974"/>
                    <circle cx="304.038" cy="140.5" r="4.914"/>
                    <circle cx="304.038" cy="149.692" r="4.703"/>
                    <circle cx="304.038" cy="158.885" r="4.553"/>
                    <circle cx="304.038" cy="168.077" r="4.404"/>
                    <circle cx="304.038" cy="177.27" r="2.119"/>
                    <circle cx="405.154" cy="186.462" r="0.189"/>
                    <circle cx="405.154" cy="177.27" r="1.33"/>
                    <circle cx="405.154" cy="168.077" r="2.558"/>
                    <circle cx="405.154" cy="158.885" r="1.904"/>
                    <circle cx="405.154" cy="149.692" r="0.739"/>
                    <circle cx="405.154" cy="140.5" r="0.189"/>
                    <circle cx="405.154" cy="131.308" r="0.027"/>
                    <circle cx="294.846" cy="103.73" r="0.076"/>
                    <circle cx="294.846" cy="112.923" r="1.355"/>
                    <circle cx="294.846" cy="122.115" r="3.872"/>
                    <circle cx="294.846" cy="131.308" r="4.019"/>
                    <circle cx="294.846" cy="140.5" r="3.872"/>
                    <circle cx="294.846" cy="149.692" r="3.813"/>
                    <circle cx="294.846" cy="158.885" r="3.726"/>
                    <circle cx="294.846" cy="168.077" r="4.078"/>
                    <circle cx="294.846" cy="177.27" r="2.146"/>
                    <circle cx="294.846" cy="186.462" r="0.291"/>
                    <circle cx="414.347" cy="186.462" r="0.209"/>
                    <circle cx="414.347" cy="177.27" r="1.666"/>
                    <circle cx="414.347" cy="168.077" r="3.931"/>
                    <circle cx="414.347" cy="158.885" r="4.344"/>
                    <circle cx="414.347" cy="149.692" r="2.95"/>
                    <circle cx="414.347" cy="140.5" r="1.535"/>
                    <circle cx="414.347" cy="131.308" r="0.599"/>
                    <circle cx="414.347" cy="122.115" r="0.15"/>
                    <circle cx="414.347" cy="112.923" r="0.012"/>
                    <circle cx="285.653" cy="103.73" r="0.076"/>
                    <circle cx="285.653" cy="112.923" r="1.355"/>
                    <circle cx="285.653" cy="122.115" r="3.843"/>
                    <circle cx="285.653" cy="131.308" r="3.931"/>
                    <circle cx="285.653" cy="140.5" r="3.784"/>
                    <circle cx="285.653" cy="149.692" r="3.813"/>
                    <circle cx="285.653" cy="158.885" r="3.726"/>
                    <circle cx="285.653" cy="168.077" r="4.078"/>
                    <circle cx="285.653" cy="177.27" r="2.146"/>
                    <circle cx="285.653" cy="186.462" r="0.291"/>
                    <circle cx="423.539" cy="186.462" r="0.112"/>
                    <circle cx="423.539" cy="177.27" r="1.178"/>
                    <circle cx="423.539" cy="168.077" r="3.697"/>
                    <circle cx="423.539" cy="158.885" r="5.738"/>
                    <circle cx="423.539" cy="149.692" r="5.431"/>
                    <circle cx="423.539" cy="140.5" r="4.196"/>
                    <circle cx="423.539" cy="131.308" r="2.725"/>
                    <circle cx="423.539" cy="122.115" r="1.253"/>
                    <circle cx="423.539" cy="112.923" r="0.249"/>
                    <circle cx="423.539" cy="103.73" r="0.012"/>
                    <circle cx="276.461" cy="103.73" r="0.076"/>
                    <circle cx="276.461" cy="112.923" r="1.355"/>
                    <circle cx="276.461" cy="122.115" r="4.048"/>
                    <circle cx="276.461" cy="131.308" r="4.583"/>
                    <circle cx="276.461" cy="140.5" r="4.553"/>
                    <circle cx="276.461" cy="149.692" r="4.553"/>
                    <circle cx="276.461" cy="158.885" r="4.493"/>
                    <circle cx="276.461" cy="168.077" r="4.374"/>
                    <circle cx="276.461" cy="177.27" r="2.146"/>
                    <circle cx="276.461" cy="186.462" r="0.291"/>
                    <circle cx="432.731" cy="186.462" r="0.027"/>
                    <circle cx="432.731" cy="177.27" r="0.486"/>
                    <circle cx="432.731" cy="168.077" r="2.503"/>
                    <circle cx="432.731" cy="158.885" r="5.035"/>
                    <circle cx="432.731" cy="149.692" r="5.187"/>
                    <circle cx="432.731" cy="140.5" r="4.944"/>
                    <circle cx="432.731" cy="131.308" r="4.823"/>
                    <circle cx="432.731" cy="122.115" r="3.206"/>
                    <circle cx="432.731" cy="112.923" r="0.81"/>
                    <circle cx="432.731" cy="103.73" r="0.042"/>
                    <circle cx="267.269" cy="103.73" r="0.076"/>
                    <circle cx="267.269" cy="112.923" r="1.304"/>
                    <circle cx="267.269" cy="122.115" r="4.255"/>
                    <circle cx="267.269" cy="131.308" r="5.523"/>
                    <circle cx="267.269" cy="140.5" r="5.646"/>
                    <circle cx="267.269" cy="149.692" r="5.677"/>
                    <circle cx="267.269" cy="158.885" r="5.615"/>
                    <circle cx="267.269" cy="168.077" r="4.673"/>
                    <circle cx="267.269" cy="177.27" r="2.065"/>
                    <circle cx="267.269" cy="186.462" r="0.27"/>
                    <circle cx="441.924" cy="177.27" r="0.249"/>
                    <circle cx="441.924" cy="168.077" r="2.011"/>
                    <circle cx="441.924" cy="158.885" r="4.137"/>
                    <circle cx="441.924" cy="149.692" r="3.465"/>
                    <circle cx="441.924" cy="140.5" r="3.465"/>
                    <circle cx="441.924" cy="131.308" r="5.005"/>
                    <circle cx="441.924" cy="122.115" r="4.285"/>
                    <circle cx="441.924" cy="112.923" r="1.279"/>
                    <circle cx="441.924" cy="103.73" r="0.059"/>
                    <circle cx="258.076" cy="103.73" r="0.042"/>
                    <circle cx="258.076" cy="112.923" r="0.882"/>
                    <circle cx="258.076" cy="122.115" r="3.035"/>
                    <circle cx="258.076" cy="131.308" r="4.226"/>
                    <circle cx="258.076" cy="140.5" r="4.374"/>
                    <circle cx="258.076" cy="149.692" r="4.374"/>
                    <circle cx="258.076" cy="158.885" r="4.344"/>
                    <circle cx="258.076" cy="168.077" r="3.378"/>
                    <circle cx="258.076" cy="177.27" r="1.381"/>
                    <circle cx="258.076" cy="186.462" r="0.189"/>
                    <circle cx="451.116" cy="177.27" r="0.27"/>
                    <circle cx="451.116" cy="168.077" r="2.065"/>
                    <circle cx="451.116" cy="158.885" r="4.285"/>
                    <circle cx="451.116" cy="149.692" r="3.813"/>
                    <circle cx="451.116" cy="140.5" r="3.843"/>
                    <circle cx="451.116" cy="131.308" r="5.096"/>
                    <circle cx="451.116" cy="122.115" r="4.137"/>
                    <circle cx="451.116" cy="112.923" r="1.178"/>
                    <circle cx="451.116" cy="103.73" r="0.059"/>
                    <circle cx="248.884" cy="103.73" r="0.012"/>
                    <circle cx="248.884" cy="112.923" r="0.229"/>
                    <circle cx="248.884" cy="122.115" r="0.786"/>
                    <circle cx="248.884" cy="131.308" r="1.128"/>
                    <circle cx="248.884" cy="140.5" r="1.153"/>
                    <circle cx="248.884" cy="149.692" r="1.153"/>
                    <circle cx="248.884" cy="158.885" r="1.153"/>
                    <circle cx="248.884" cy="168.077" r="0.882"/>
                    <circle cx="248.884" cy="177.27" r="0.354"/>
                    <circle cx="248.884" cy="186.462" r="0.042"/>
                    <circle cx="460.309" cy="186.462" r="0.042"/>
                    <circle cx="460.309" cy="177.27" r="0.622"/>
                    <circle cx="460.309" cy="168.077" r="2.753"/>
                    <circle cx="460.309" cy="158.885" r="5.309"/>
                    <circle cx="460.309" cy="149.692" r="5.523"/>
                    <circle cx="460.309" cy="140.5" r="5.065"/>
                    <circle cx="460.309" cy="131.308" r="4.493"/>
                    <circle cx="460.309" cy="122.115" r="2.753"/>
                    <circle cx="460.309" cy="112.923" r="0.669"/>
                    <circle cx="460.309" cy="103.73" r="0.027"/>
                    <circle cx="239.691" cy="112.923" r="0.012"/>
                    <circle cx="239.691" cy="122.115" r="0.027"/>
                    <circle cx="239.691" cy="131.308" r="0.042"/>
                    <circle cx="239.691" cy="140.5" r="0.042"/>
                    <circle cx="239.691" cy="149.692" r="0.042"/>
                    <circle cx="239.691" cy="158.885" r="0.042"/>
                    <circle cx="239.691" cy="168.077" r="0.042"/>
                    <circle cx="239.691" cy="177.27" r="0.027"/>
                    <circle cx="239.691" cy="186.462" r="0.027"/>
                    <circle cx="239.691" cy="195.654" r="0.027"/>
                    <circle cx="239.691" cy="204.847" r="0.027"/>
                    <circle cx="239.691" cy="214.039" r="0.012"/>
                    <circle cx="469.501" cy="186.462" r="0.15"/>
                    <circle cx="469.501" cy="177.27" r="1.381"/>
                    <circle cx="469.501" cy="168.077" r="3.96"/>
                    <circle cx="469.501" cy="158.885" r="5.615"/>
                    <circle cx="469.501" cy="149.692" r="4.974"/>
                    <circle cx="469.501" cy="140.5" r="3.523"/>
                    <circle cx="469.501" cy="131.308" r="2.065"/>
                    <circle cx="469.501" cy="122.115" r="0.858"/>
                    <circle cx="469.501" cy="112.923" r="0.15"/>
                    <circle cx="469.501" cy="103.73" r="0.012"/>
                    <circle cx="478.693" cy="186.462" r="0.209"/>
                    <circle cx="478.693" cy="177.27" r="1.613"/>
                    <circle cx="478.693" cy="168.077" r="3.639"/>
                    <circle cx="478.693" cy="158.885" r="3.697"/>
                    <circle cx="478.693" cy="149.692" r="2.255"/>
                    <circle cx="478.693" cy="140.5" r="1.078"/>
                    <circle cx="478.693" cy="131.308" r="0.376"/>
                    <circle cx="478.693" cy="122.115" r="0.076"/>
                    <circle cx="478.693" cy="112.923" r="0.012"/>
                    <circle cx="487.886" cy="186.462" r="0.15"/>
                    <circle cx="487.886" cy="177.27" r="1.004"/>
                    <circle cx="487.886" cy="168.077" r="2.255"/>
                    <circle cx="487.886" cy="158.885" r="2.31"/>
                    <circle cx="487.886" cy="149.692" r="1.666"/>
                    <circle cx="487.886" cy="140.5" r="1.253"/>
                    <circle cx="487.886" cy="131.308" r="0.931"/>
                    <circle cx="487.886" cy="122.115" r="0.441"/>
                    <circle cx="487.886" cy="112.923" r="0.076"/>
                    <circle cx="497.078" cy="186.462" r="0.112"/>
                    <circle cx="497.078" cy="177.27" r="1.029"/>
                    <circle cx="497.078" cy="168.077" r="2.922"/>
                    <circle cx="497.078" cy="158.885" r="4.226"/>
                    <circle cx="497.078" cy="149.692" r="4.344"/>
                    <circle cx="497.078" cy="140.5" r="4.344"/>
                    <circle cx="497.078" cy="131.308" r="3.872"/>
                    <circle cx="497.078" cy="122.115" r="2.31"/>
                    <circle cx="497.078" cy="112.923" r="0.508"/>
                    <circle cx="497.078" cy="103.73" r="0.012"/>
                    <circle cx="506.271" cy="186.462" r="0.209"/>
                    <circle cx="506.271" cy="177.27" r="1.798"/>
                    <circle cx="506.271" cy="168.077" r="4.434"/>
                    <circle cx="506.271" cy="158.885" r="5.309"/>
                    <circle cx="506.271" cy="149.692" r="4.763"/>
                    <circle cx="506.271" cy="140.5" r="4.944"/>
                    <circle cx="506.271" cy="131.308" r="5.339"/>
                    <circle cx="506.271" cy="122.115" r="3.96"/>
                    <circle cx="506.271" cy="112.923" r="1.078"/>
                    <circle cx="506.271" cy="103.73" r="0.059"/>
                    <circle cx="515.463" cy="186.462" r="0.333"/>
                    <circle cx="515.463" cy="177.27" r="2.31"/>
                    <circle cx="515.463" cy="168.077" r="4.583"/>
                    <circle cx="515.463" cy="158.885" r="3.668"/>
                    <circle cx="515.463" cy="149.692" r="2.119"/>
                    <circle cx="515.463" cy="140.5" r="2.475"/>
                    <circle cx="515.463" cy="131.308" r="4.285"/>
                    <circle cx="515.463" cy="122.115" r="4.344"/>
                    <circle cx="515.463" cy="112.923" r="1.458"/>
                    <circle cx="515.463" cy="103.73" r="0.094"/>
                    <circle cx="524.655" cy="186.462" r="0.376"/>
                    <circle cx="524.655" cy="177.27" r="2.42"/>
                    <circle cx="524.655" cy="168.077" r="4.255"/>
                    <circle cx="524.655" cy="158.885" r="2.365"/>
                    <circle cx="524.655" cy="149.692" r="0.486"/>
                    <circle cx="524.655" cy="140.5" r="0.882"/>
                    <circle cx="524.655" cy="131.308" r="3.235"/>
                    <circle cx="524.655" cy="122.115" r="4.166"/>
                    <circle cx="524.655" cy="112.923" r="1.561"/>
                    <circle cx="524.655" cy="103.73" r="0.112"/>
                    <circle cx="533.848" cy="186.462" r="0.376"/>
                    <circle cx="533.848" cy="177.27" r="2.447"/>
                    <circle cx="533.848" cy="168.077" r="4.226"/>
                    <circle cx="533.848" cy="158.885" r="2.174"/>
                    <circle cx="533.848" cy="149.692" r="0.312"/>
                    <circle cx="533.848" cy="140.5" r="0.692"/>
                    <circle cx="533.848" cy="131.308" r="3.092"/>
                    <circle cx="533.848" cy="122.115" r="4.137"/>
                    <circle cx="533.848" cy="112.923" r="1.561"/>
                    <circle cx="533.848" cy="103.73" r="0.112"/>
                    <circle cx="543.04" cy="186.462" r="0.354"/>
                    <circle cx="543.04" cy="177.27" r="2.365"/>
                    <circle cx="543.04" cy="168.077" r="4.523"/>
                    <circle cx="543.04" cy="158.885" r="2.95"/>
                    <circle cx="543.04" cy="149.692" r="0.81"/>
                    <circle cx="543.04" cy="140.5" r="1.228"/>
                    <circle cx="543.04" cy="131.308" r="3.755"/>
                    <circle cx="543.04" cy="122.115" r="4.344"/>
                    <circle cx="543.04" cy="112.923" r="1.509"/>
                    <circle cx="543.04" cy="103.73" r="0.112"/>
                    <circle cx="552.233" cy="186.462" r="0.27"/>
                    <circle cx="552.233" cy="177.27" r="2.011"/>
                    <circle cx="552.233" cy="168.077" r="4.613"/>
                    <circle cx="552.233" cy="158.885" r="4.048"/>
                    <circle cx="552.233" cy="149.692" r="1.692"/>
                    <circle cx="552.233" cy="140.5" r="1.984"/>
                    <circle cx="552.233" cy="131.308" r="4.344"/>
                    <circle cx="552.233" cy="122.115" r="4.107"/>
                    <circle cx="552.233" cy="112.923" r="1.228"/>
                    <circle cx="552.233" cy="103.73" r="0.076"/>
                    <circle cx="561.425" cy="186.462" r="0.112"/>
                    <circle cx="561.425" cy="177.27" r="1.153"/>
                    <circle cx="561.425" cy="168.077" r="3.235"/>
                    <circle cx="561.425" cy="158.885" r="3.465"/>
                    <circle cx="561.425" cy="149.692" r="1.718"/>
                    <circle cx="561.425" cy="140.5" r="1.771"/>
                    <circle cx="561.425" cy="131.308" r="3.178"/>
                    <circle cx="561.425" cy="122.115" r="2.586"/>
                    <circle cx="561.425" cy="112.923" r="0.622"/>
                    <circle cx="561.425" cy="103.73" r="0.027"/>
                    <circle cx="570.617" cy="186.462" r="0.076"/>
                    <circle cx="570.617" cy="177.27" r="0.739"/>
                    <circle cx="570.617" cy="168.077" r="2.092"/>
                    <circle cx="570.617" cy="158.885" r="2.614"/>
                    <circle cx="570.617" cy="149.692" r="1.984"/>
                    <circle cx="570.617" cy="140.5" r="1.931"/>
                    <circle cx="570.617" cy="131.308" r="2.283"/>
                    <circle cx="570.617" cy="122.115" r="1.64"/>
                    <circle cx="570.617" cy="112.923" r="0.398"/>
                    <circle cx="570.617" cy="103.73" r="0.012"/>
                    <circle cx="579.81" cy="186.462" r="0.169"/>
                    <circle cx="579.81" cy="177.27" r="1.279"/>
                    <circle cx="579.81" cy="168.077" r="3.235"/>
                    <circle cx="579.81" cy="158.885" r="4.285"/>
                    <circle cx="579.81" cy="149.692" r="4.255"/>
                    <circle cx="579.81" cy="140.5" r="4.226"/>
                    <circle cx="579.81" cy="131.308" r="4.048"/>
                    <circle cx="579.81" cy="122.115" r="2.838"/>
                    <circle cx="579.81" cy="112.923" r="0.786"/>
                    <circle cx="579.81" cy="103.73" r="0.042"/>
                    <circle cx="589.002" cy="186.462" r="0.189"/>
                    <circle cx="589.002" cy="177.27" r="1.406"/>
                    <circle cx="589.002" cy="168.077" r="3.465"/>
                    <circle cx="589.002" cy="158.885" r="5.035"/>
                    <circle cx="589.002" cy="149.692" r="5.831"/>
                    <circle cx="589.002" cy="140.5" r="5.738"/>
                    <circle cx="589.002" cy="131.308" r="4.763"/>
                    <circle cx="589.002" cy="122.115" r="3.092"/>
                    <circle cx="589.002" cy="112.923" r="0.882"/>
                    <circle cx="589.002" cy="103.73" r="0.042"/>
                    <circle cx="598.194" cy="186.462" r="0.076"/>
                    <circle cx="598.194" cy="177.27" r="0.508"/>
                    <circle cx="598.194" cy="168.077" r="1.432"/>
                    <circle cx="598.194" cy="158.885" r="3.206"/>
                    <circle cx="598.194" cy="149.692" r="5.157"/>
                    <circle cx="598.194" cy="140.5" r="4.944"/>
                    <circle cx="598.194" cy="131.308" r="2.838"/>
                    <circle cx="598.194" cy="122.115" r="1.279"/>
                    <circle cx="598.194" cy="112.923" r="0.333"/>
                    <circle cx="598.194" cy="103.73" r="0.027"/>
                    <circle cx="607.387" cy="186.462" r="0.012"/>
                    <circle cx="607.387" cy="177.27" r="0.112"/>
                    <circle cx="607.387" cy="168.077" r="0.739"/>
                    <circle cx="607.387" cy="158.885" r="3.007"/>
                    <circle cx="607.387" cy="149.692" r="5.37"/>
                    <circle cx="607.387" cy="140.5" r="5.126"/>
                    <circle cx="607.387" cy="131.308" r="2.642"/>
                    <circle cx="607.387" cy="122.115" r="0.715"/>
                    <circle cx="607.387" cy="112.923" r="0.076"/>
                    <circle cx="616.579" cy="186.462" r="0.027"/>
                    <circle cx="616.579" cy="177.27" r="0.398"/>
                    <circle cx="616.579" cy="168.077" r="1.958"/>
                    <circle cx="616.579" cy="158.885" r="4.434"/>
                    <circle cx="616.579" cy="149.692" r="5.554"/>
                    <circle cx="616.579" cy="140.5" r="5.523"/>
                    <circle cx="616.579" cy="131.308" r="4.285"/>
                    <circle cx="616.579" cy="122.115" r="2.011"/>
                    <circle cx="616.579" cy="112.923" r="0.354"/>
                    <circle cx="616.579" cy="103.73" r="0.012"/>
                    <circle cx="625.772" cy="186.462" r="0.112"/>
                    <circle cx="625.772" cy="177.27" r="1.228"/>
                    <circle cx="625.772" cy="168.077" r="3.668"/>
                    <circle cx="625.772" cy="158.885" r="4.763"/>
                    <circle cx="625.772" cy="149.692" r="3.755"/>
                    <circle cx="625.772" cy="140.5" r="3.901"/>
                    <circle cx="625.772" cy="131.308" r="4.884"/>
                    <circle cx="625.772" cy="122.115" r="3.668"/>
                    <circle cx="625.772" cy="112.923" r="0.979"/>
                    <circle cx="625.772" cy="103.73" r="0.059"/>
                    <circle cx="634.964" cy="186.462" r="0.229"/>
                    <circle cx="634.964" cy="177.27" r="1.824"/>
                    <circle cx="634.964" cy="168.077" r="4.019"/>
                    <circle cx="634.964" cy="158.885" r="3.263"/>
                    <circle cx="634.964" cy="149.692" r="1.381"/>
                    <circle cx="634.964" cy="140.5" r="1.535"/>
                    <circle cx="634.964" cy="131.308" r="3.465"/>
                    <circle cx="634.964" cy="122.115" r="3.784"/>
                    <circle cx="634.964" cy="112.923" r="1.33"/>
                    <circle cx="634.964" cy="103.73" r="0.094"/>
                    <circle cx="644.156" cy="186.462" r="0.229"/>
                    <circle cx="644.156" cy="177.27" r="1.432"/>
                    <circle cx="644.156" cy="168.077" r="2.42"/>
                    <circle cx="644.156" cy="158.885" r="1.228"/>
                    <circle cx="644.156" cy="149.692" r="0.209"/>
                    <circle cx="644.156" cy="140.5" r="0.249"/>
                    <circle cx="644.156" cy="131.308" r="1.279"/>
                    <circle cx="644.156" cy="122.115" r="2.038"/>
                    <circle cx="644.156" cy="112.923" r="0.931"/>
                    <circle cx="644.156" cy="103.73" r="0.094"/>
                    <circle cx="653.349" cy="186.462" r="0.112"/>
                    <circle cx="653.349" cy="177.27" r="0.576"/>
                    <circle cx="653.349" cy="168.077" r="0.786"/>
                    <circle cx="653.349" cy="158.885" r="0.27"/>
                    <circle cx="653.349" cy="149.692" r="0.012"/>
                    <circle cx="653.349" cy="140.5" r="0.027"/>
                    <circle cx="653.349" cy="131.308" r="0.27"/>
                    <circle cx="653.349" cy="122.115" r="0.576"/>
                    <circle cx="653.349" cy="112.923" r="0.333"/>
                    <circle cx="653.349" cy="103.73" r="0.042"/>
                    <circle cx="662.541" cy="186.462" r="0.027"/>
                    <circle cx="662.541" cy="177.27" r="0.094"/>
                    <circle cx="662.541" cy="168.077" r="0.094"/>
                    <circle cx="662.541" cy="158.885" r="0.027"/>
                    <circle cx="662.541" cy="131.308" r="0.012"/>
                    <circle cx="662.541" cy="122.115" r="0.042"/>
                    <circle cx="662.541" cy="112.923" r="0.042"/>
                    <circle cx="662.541" cy="103.73" r="0.012"/>
                </g>
            </g>
        </g>
    </g>
</svg>
